<svg xmlns="http://www.w3.org/2000/svg" width="1000" height="790" viewBox="0 0 1000 790" font-family="'IBM Plex Sans', 'Segoe UI', system-ui, sans-serif">
<rect width="1000" height="790" fill="#fcfcfb"/>
<text x="60" y="38" font-size="21" fill="#0b0b0b" text-anchor="start" font-weight="600">Сходимость ГА по поколениям при разных схемах выбора родителей</text><text x="60" y="60" font-size="13" fill="#52514e" text-anchor="start" font-weight="400">Популяция M = 60, 400 поколений, Pc = 0,85, Pm = 0,2, элитизм = 2; среднее по 5 запускам с разными seed</text><line x1="60" y1="84" x2="78" y2="84" stroke="#2a78d6" stroke-width="2" stroke-linecap="round"/><text x="86" y="88" font-size="13" fill="#52514e" text-anchor="start" font-weight="400">пропорциональный, fitness = 1/(1+F)</text><line x1="349.5" y1="84" x2="367.5" y2="84" stroke="#eb6834" stroke-width="2" stroke-linecap="round"/><text x="375.5" y="88" font-size="13" fill="#52514e" text-anchor="start" font-weight="400">пропорциональный со сдвигом F_max − F</text><line x1="652.8" y1="84" x2="670.8" y2="84" stroke="#1baf7a" stroke-width="2" stroke-linecap="round"/><text x="678.8" y="88" font-size="13" fill="#52514e" text-anchor="start" font-weight="400">ранговый отбор (s = 2)</text><text x="60" y="112" font-size="14" fill="#0b0b0b" text-anchor="start" font-weight="600">6 процессов (демо) — n = 6, H = 23, точный оптимум F = 243</text><line x1="68" y1="376" x2="790" y2="376" stroke="#898781" stroke-width="1" stroke-dasharray="4 4"/><text x="58" y="380" font-size="12" fill="#898781" text-anchor="end" font-weight="400">0 %</text><line x1="68" y1="328" x2="790" y2="328" stroke="#e1e0d9" stroke-width="1" /><text x="58" y="332" font-size="12" fill="#898781" text-anchor="end" font-weight="400">10 %</text><line x1="68" y1="280" x2="790" y2="280" stroke="#e1e0d9" stroke-width="1" /><text x="58" y="284" font-size="12" fill="#898781" text-anchor="end" font-weight="400">20 %</text><line x1="68" y1="232" x2="790" y2="232" stroke="#e1e0d9" stroke-width="1" /><text x="58" y="236" font-size="12" fill="#898781" text-anchor="end" font-weight="400">30 %</text><line x1="68" y1="184" x2="790" y2="184" stroke="#e1e0d9" stroke-width="1" /><text x="58" y="188" font-size="12" fill="#898781" text-anchor="end" font-weight="400">40 %</text><line x1="68" y1="136" x2="790" y2="136" stroke="#e1e0d9" stroke-width="1" /><text x="58" y="140" font-size="12" fill="#898781" text-anchor="end" font-weight="400">50 %</text><line x1="68" y1="376" x2="68" y2="381" stroke="#c3c2b7" stroke-width="1" /><text x="68" y="396" font-size="12" fill="#898781" text-anchor="middle" font-weight="400">0</text><line x1="249" y1="376" x2="249" y2="381" stroke="#c3c2b7" stroke-width="1" /><text x="249" y="396" font-size="12" fill="#898781" text-anchor="middle" font-weight="400">100</text><line x1="429.9" y1="376" x2="429.9" y2="381" stroke="#c3c2b7" stroke-width="1" /><text x="429.9" y="396" font-size="12" fill="#898781" text-anchor="middle" font-weight="400">200</text><line x1="610.9" y1="376" x2="610.9" y2="381" stroke="#c3c2b7" stroke-width="1" /><text x="610.9" y="396" font-size="12" fill="#898781" text-anchor="middle" font-weight="400">300</text><line x1="790" y1="376" x2="790" y2="381" stroke="#c3c2b7" stroke-width="1" /><text x="790" y="396" font-size="12" fill="#898781" text-anchor="middle" font-weight="400">399</text><text x="429" y="414" font-size="12" fill="#52514e" text-anchor="middle" font-weight="400">поколение (0 % — точный оптимум)</text><path d="M68,180.1 L69.8,208.9 L71.6,221.9 L73.4,227.4 L75.2,227.4 L77,229.8 L78.9,237.3 L80.7,247.6 L82.5,247.6 L84.3,251.2 L86.1,251.2 L87.9,258.7 L89.7,259.1 L91.5,266.2 L93.3,269 L95.1,270.5 L97,271.3 L98.8,274.5 L100.6,274.5 L102.4,274.5 L104.2,282 L106,282 L107.8,286.3 L109.6,288.7 L111.4,290.7 L113.2,296.6 L115,297.4 L116.9,300.9 L118.7,300.9 L120.5,303.7 L122.3,304.9 L124.1,304.9 L125.9,305.7 L127.7,307.6 L129.5,308 L131.3,310 L133.1,312 L135,314 L136.8,314 L138.6,314 L140.4,314 L142.2,314.8 L144,314.8 L145.8,318.7 L147.6,318.7 L149.4,318.7 L151.2,318.7 L153,320.3 L154.9,324.6 L156.7,324.6 L158.5,325 L160.3,325.5 L162.1,326.2 L163.9,326.2 L165.7,326.2 L167.5,326.2 L169.3,327 L171.1,327.8 L173,331 L174.8,331 L176.6,331 L178.4,331.7 L180.2,331.7 L182,331.7 L183.8,332.6 L185.6,332.9 L187.4,334.1 L189.2,335.7 L191,335.7 L192.9,335.7 L194.7,337.3 L196.5,337.3 L198.3,343.2 L200.1,343.2 L201.9,343.2 L203.7,343.2 L205.5,344.4 L207.3,344.4 L209.1,344.4 L211,344.4 L212.8,346 L214.6,346.4 L216.4,346.4 L218.2,346.4 L220,346.4 L221.8,346.4 L223.6,347.5 L225.4,347.5 L227.2,347.5 L229,348.7 L230.9,348.7 L232.7,348.7 L234.5,349.1 L236.3,349.1 L238.1,349.1 L239.9,349.1 L241.7,349.9 L243.5,349.9 L245.3,349.9 L247.1,349.9 L249,349.9 L250.8,349.9 L252.6,349.9 L254.4,349.9 L256.2,349.9 L258,349.9 L259.8,349.9 L261.6,350.7 L263.4,350.7 L265.2,350.7 L267,351.1 L268.9,351.1 L270.7,351.1 L272.5,351.9 L274.3,351.9 L276.1,351.9 L277.9,351.9 L279.7,351.9 L281.5,351.9 L283.3,351.9 L285.1,351.9 L287,351.9 L288.8,351.9 L290.6,351.9 L292.4,351.9 L294.2,351.9 L296,351.9 L297.8,351.9 L299.6,351.9 L301.4,352.7 L303.2,352.7 L305,352.7 L306.9,352.7 L308.7,352.7 L310.5,352.7 L312.3,352.7 L314.1,352.7 L315.9,354.7 L317.7,354.7 L319.5,354.7 L321.3,354.7 L323.1,354.7 L325,354.7 L326.8,354.7 L328.6,354.7 L330.4,354.7 L332.2,354.7 L334,354.7 L335.8,354.7 L337.6,355.8 L339.4,355.8 L341.2,355.8 L343,355.8 L344.9,355.8 L346.7,355.8 L348.5,355.8 L350.3,355.8 L352.1,355.8 L353.9,355.8 L355.7,356.7 L357.5,356.7 L359.3,356.7 L361.1,357 L363,357.4 L364.8,357.4 L366.6,357.4 L368.4,357.4 L370.2,359.8 L372,359.8 L373.8,359.8 L375.6,359.8 L377.4,359.8 L379.2,359.8 L381,359.8 L382.9,359.8 L384.7,359.8 L386.5,359.8 L388.3,359.8 L390.1,359.8 L391.9,361.4 L393.7,361.4 L395.5,361.4 L397.3,361.4 L399.1,361.8 L401,361.8 L402.8,361.8 L404.6,361.8 L406.4,361.8 L408.2,361.8 L410,362.2 L411.8,362.2 L413.6,362.2 L415.4,362.6 L417.2,362.6 L419,362.6 L420.9,362.6 L422.7,362.6 L424.5,362.6 L426.3,362.6 L428.1,362.6 L429.9,362.6 L431.7,362.6 L433.5,362.6 L435.3,362.6 L437.1,362.6 L439,362.6 L440.8,362.6 L442.6,362.6 L444.4,362.6 L446.2,362.6 L448,362.6 L449.8,362.6 L451.6,362.6 L453.4,362.6 L455.2,362.6 L457,362.6 L458.9,362.6 L460.7,362.6 L462.5,362.6 L464.3,362.6 L466.1,362.6 L467.9,363.8 L469.7,364.1 L471.5,364.1 L473.3,364.5 L475.1,364.5 L477,364.5 L478.8,364.5 L480.6,364.5 L482.4,364.5 L484.2,365 L486,365 L487.8,366.5 L489.6,366.5 L491.4,366.5 L493.2,366.5 L495,366.5 L496.9,366.5 L498.7,366.5 L500.5,366.5 L502.3,366.5 L504.1,366.5 L505.9,366.5 L507.7,366.5 L509.5,368.1 L511.3,368.1 L513.1,368.1 L515,368.1 L516.8,368.1 L518.6,368.1 L520.4,368.1 L522.2,368.1 L524,368.1 L525.8,368.1 L527.6,368.1 L529.4,368.1 L531.2,368.1 L533,368.1 L534.9,368.1 L536.7,368.1 L538.5,368.1 L540.3,368.1 L542.1,368.1 L543.9,368.1 L545.7,368.1 L547.5,368.1 L549.3,368.1 L551.1,368.1 L553,368.1 L554.8,368.1 L556.6,368.1 L558.4,368.1 L560.2,368.1 L562,368.1 L563.8,368.1 L565.6,368.1 L567.4,368.1 L569.2,368.1 L571,368.1 L572.9,368.1 L574.7,368.1 L576.5,368.1 L578.3,368.1 L580.1,368.1 L581.9,368.1 L583.7,368.1 L585.5,368.1 L587.3,368.1 L589.1,368.1 L591,368.1 L592.8,368.1 L594.6,368.1 L596.4,368.1 L598.2,368.1 L600,368.1 L601.8,368.1 L603.6,368.1 L605.4,368.1 L607.2,368.1 L609,368.1 L610.9,368.1 L612.7,368.1 L614.5,368.1 L616.3,368.1 L618.1,368.1 L619.9,368.1 L621.7,368.1 L623.5,368.1 L625.3,368.1 L627.1,368.1 L629,368.1 L630.8,368.1 L632.6,368.1 L634.4,368.1 L636.2,368.1 L638,368.1 L639.8,370.5 L641.6,370.5 L643.4,370.5 L645.2,370.5 L647,370.5 L648.9,370.5 L650.7,370.5 L652.5,370.5 L654.3,370.5 L656.1,370.5 L657.9,370.5 L659.7,370.5 L661.5,370.5 L663.3,370.5 L665.1,370.5 L667,370.5 L668.8,370.5 L670.6,370.5 L672.4,370.5 L674.2,370.5 L676,370.5 L677.8,370.5 L679.6,370.5 L681.4,370.5 L683.2,370.5 L685,370.5 L686.9,370.5 L688.7,370.5 L690.5,370.5 L692.3,371.2 L694.1,371.2 L695.9,371.2 L697.7,371.2 L699.5,371.2 L701.3,371.2 L703.1,371.2 L705,371.2 L706.8,371.2 L708.6,371.2 L710.4,371.2 L712.2,371.2 L714,371.2 L715.8,371.2 L717.6,371.2 L719.4,371.2 L721.2,371.2 L723,371.2 L724.9,371.2 L726.7,371.2 L728.5,371.2 L730.3,371.2 L732.1,371.2 L733.9,371.2 L735.7,371.2 L737.5,371.2 L739.3,371.2 L741.1,371.2 L743,371.2 L744.8,371.2 L746.6,371.2 L748.4,371.2 L750.2,371.6 L752,371.6 L753.8,371.6 L755.6,371.6 L757.4,371.6 L759.2,371.6 L761,371.6 L762.9,372.1 L764.7,372.1 L766.5,372.1 L768.3,372.1 L770.1,372.1 L771.9,372.1 L773.7,372.8 L775.5,372.8 L777.3,372.8 L779.1,372.8 L781,372.8 L782.8,372.8 L784.6,372.8 L786.4,372.8 L788.2,372.8 L790,372.8" fill="none" stroke="#2a78d6" stroke-width="2" stroke-linejoin="round" stroke-linecap="round"/><path d="M68,180.1 L69.8,207.3 L71.6,211.6 L73.4,224.3 L75.2,238.5 L77,248.8 L78.9,251.5 L80.7,255.1 L82.5,266.9 L84.3,266.9 L86.1,270.5 L87.9,274.9 L89.7,279.2 L91.5,279.6 L93.3,289.9 L95.1,292.2 L97,292.2 L98.8,306.4 L100.6,307.3 L102.4,307.3 L104.2,308 L106,311.2 L107.8,312.4 L109.6,319.1 L111.4,325 L113.2,328.2 L115,330.5 L116.9,330.5 L118.7,334.1 L120.5,336.1 L122.3,336.1 L124.1,339.7 L125.9,340.8 L127.7,341.2 L129.5,342 L131.3,342.8 L133.1,345.6 L135,346.4 L136.8,346.4 L138.6,346.4 L140.4,346.8 L142.2,347.2 L144,348.4 L145.8,349.9 L147.6,352.3 L149.4,352.3 L151.2,353.1 L153,353.1 L154.9,353.1 L156.7,353.1 L158.5,353.5 L160.3,353.5 L162.1,353.5 L163.9,353.5 L165.7,355.1 L167.5,355.1 L169.3,355.1 L171.1,355.1 L173,355.1 L174.8,355.5 L176.6,356.2 L178.4,356.2 L180.2,356.2 L182,356.2 L183.8,356.2 L185.6,356.2 L187.4,356.2 L189.2,356.2 L191,356.2 L192.9,356.2 L194.7,356.2 L196.5,356.2 L198.3,356.7 L200.1,356.7 L201.9,356.7 L203.7,356.7 L205.5,356.7 L207.3,356.7 L209.1,356.7 L211,356.7 L212.8,356.7 L214.6,358.2 L216.4,358.2 L218.2,358.2 L220,358.2 L221.8,358.2 L223.6,358.2 L225.4,358.2 L227.2,358.2 L229,358.2 L230.9,358.6 L232.7,358.6 L234.5,360.6 L236.3,360.6 L238.1,360.6 L239.9,360.6 L241.7,360.6 L243.5,360.6 L245.3,360.6 L247.1,360.6 L249,360.6 L250.8,360.6 L252.6,360.6 L254.4,360.6 L256.2,361 L258,361 L259.8,362.2 L261.6,362.2 L263.4,362.2 L265.2,363.4 L267,363.4 L268.9,363.4 L270.7,363.4 L272.5,363.4 L274.3,363.4 L276.1,363.4 L277.9,363.4 L279.7,363.4 L281.5,363.4 L283.3,363.4 L285.1,363.4 L287,363.4 L288.8,363.4 L290.6,363.4 L292.4,363.4 L294.2,363.4 L296,363.4 L297.8,363.4 L299.6,363.4 L301.4,363.4 L303.2,363.4 L305,363.4 L306.9,363.4 L308.7,363.4 L310.5,363.4 L312.3,363.4 L314.1,363.4 L315.9,363.4 L317.7,363.4 L319.5,363.4 L321.3,363.4 L323.1,363.4 L325,363.4 L326.8,363.4 L328.6,363.4 L330.4,363.4 L332.2,363.4 L334,363.4 L335.8,363.4 L337.6,363.4 L339.4,363.4 L341.2,363.4 L343,363.4 L344.9,363.4 L346.7,363.4 L348.5,363.4 L350.3,363.4 L352.1,363.4 L353.9,363.4 L355.7,363.4 L357.5,363.4 L359.3,363.4 L361.1,365.3 L363,365.3 L364.8,365.3 L366.6,365.3 L368.4,365.3 L370.2,366.5 L372,366.5 L373.8,366.5 L375.6,366.5 L377.4,366.5 L379.2,366.5 L381,366.5 L382.9,366.5 L384.7,366.5 L386.5,366.5 L388.3,366.5 L390.1,366.9 L391.9,366.9 L393.7,366.9 L395.5,366.9 L397.3,366.9 L399.1,366.9 L401,366.9 L402.8,366.9 L404.6,366.9 L406.4,366.9 L408.2,366.9 L410,367.7 L411.8,367.7 L413.6,367.7 L415.4,367.7 L417.2,369.3 L419,369.3 L420.9,369.3 L422.7,369.3 L424.5,369.3 L426.3,369.3 L428.1,369.3 L429.9,369.3 L431.7,369.3 L433.5,369.3 L435.3,369.3 L437.1,369.3 L439,369.3 L440.8,369.3 L442.6,369.3 L444.4,369.3 L446.2,369.3 L448,369.3 L449.8,369.3 L451.6,369.3 L453.4,369.3 L455.2,369.7 L457,369.7 L458.9,369.7 L460.7,369.7 L462.5,369.7 L464.3,369.7 L466.1,369.7 L467.9,369.7 L469.7,369.7 L471.5,369.7 L473.3,369.7 L475.1,369.7 L477,369.7 L478.8,369.7 L480.6,369.7 L482.4,369.7 L484.2,370.9 L486,370.9 L487.8,370.9 L489.6,370.9 L491.4,370.9 L493.2,370.9 L495,370.9 L496.9,370.9 L498.7,370.9 L500.5,370.9 L502.3,370.9 L504.1,370.9 L505.9,370.9 L507.7,370.9 L509.5,370.9 L511.3,370.9 L513.1,370.9 L515,370.9 L516.8,370.9 L518.6,370.9 L520.4,370.9 L522.2,370.9 L524,370.9 L525.8,370.9 L527.6,370.9 L529.4,370.9 L531.2,370.9 L533,370.9 L534.9,370.9 L536.7,370.9 L538.5,370.9 L540.3,370.9 L542.1,370.9 L543.9,370.9 L545.7,370.9 L547.5,370.9 L549.3,370.9 L551.1,370.9 L553,370.9 L554.8,370.9 L556.6,370.9 L558.4,370.9 L560.2,370.9 L562,370.9 L563.8,370.9 L565.6,370.9 L567.4,373.2 L569.2,373.2 L571,373.2 L572.9,373.2 L574.7,373.2 L576.5,373.2 L578.3,373.2 L580.1,373.2 L581.9,373.2 L583.7,373.2 L585.5,373.2 L587.3,373.2 L589.1,373.2 L591,373.2 L592.8,373.2 L594.6,373.2 L596.4,373.2 L598.2,373.2 L600,373.2 L601.8,373.2 L603.6,373.2 L605.4,373.2 L607.2,373.2 L609,373.2 L610.9,373.2 L612.7,373.2 L614.5,373.2 L616.3,373.2 L618.1,373.2 L619.9,373.2 L621.7,373.2 L623.5,373.2 L625.3,373.2 L627.1,373.2 L629,373.2 L630.8,373.2 L632.6,373.2 L634.4,373.2 L636.2,373.2 L638,373.2 L639.8,374.4 L641.6,374.4 L643.4,374.4 L645.2,374.4 L647,374.4 L648.9,374.4 L650.7,374.4 L652.5,374.8 L654.3,374.8 L656.1,374.8 L657.9,374.8 L659.7,374.8 L661.5,374.8 L663.3,374.8 L665.1,374.8 L667,374.8 L668.8,374.8 L670.6,374.8 L672.4,374.8 L674.2,375.2 L676,375.2 L677.8,375.2 L679.6,375.2 L681.4,375.2 L683.2,375.2 L685,375.2 L686.9,375.2 L688.7,375.2 L690.5,375.2 L692.3,375.2 L694.1,375.2 L695.9,375.2 L697.7,375.2 L699.5,375.2 L701.3,375.2 L703.1,375.2 L705,375.2 L706.8,375.2 L708.6,375.2 L710.4,375.2 L712.2,375.2 L714,375.2 L715.8,375.6 L717.6,375.6 L719.4,375.6 L721.2,375.6 L723,375.6 L724.9,375.6 L726.7,375.6 L728.5,375.6 L730.3,375.6 L732.1,375.6 L733.9,375.6 L735.7,375.6 L737.5,375.6 L739.3,375.6 L741.1,375.6 L743,375.6 L744.8,375.6 L746.6,375.6 L748.4,375.6 L750.2,375.6 L752,375.6 L753.8,375.6 L755.6,375.6 L757.4,375.6 L759.2,375.6 L761,375.6 L762.9,376 L764.7,376 L766.5,376 L768.3,376 L770.1,376 L771.9,376 L773.7,376 L775.5,376 L777.3,376 L779.1,376 L781,376 L782.8,376 L784.6,376 L786.4,376 L788.2,376 L790,376" fill="none" stroke="#eb6834" stroke-width="2" stroke-linejoin="round" stroke-linecap="round"/><path d="M68,180.1 L69.8,212.5 L71.6,221.5 L73.4,230.2 L75.2,238.9 L77,246.8 L78.9,255.1 L80.7,268.5 L82.5,277.2 L84.3,280.4 L86.1,290.7 L87.9,293.4 L89.7,294.6 L91.5,298.6 L93.3,301.7 L95.1,310.8 L97,312.8 L98.8,316 L100.6,317.5 L102.4,323.1 L104.2,324.6 L106,326.6 L107.8,327.4 L109.6,329 L111.4,333.7 L113.2,338.5 L115,341.2 L116.9,341.6 L118.7,342.8 L120.5,343.2 L122.3,343.2 L124.1,346 L125.9,348.4 L127.7,349.9 L129.5,349.9 L131.3,351.5 L133.1,352.3 L135,352.7 L136.8,353.9 L138.6,353.9 L140.4,353.9 L142.2,353.9 L144,361.8 L145.8,361.8 L147.6,362.6 L149.4,363.4 L151.2,363.8 L153,363.8 L154.9,363.8 L156.7,363.8 L158.5,363.8 L160.3,363.8 L162.1,363.8 L163.9,363.8 L165.7,365.7 L167.5,366.1 L169.3,366.1 L171.1,366.1 L173,368.1 L174.8,368.1 L176.6,368.1 L178.4,368.1 L180.2,368.1 L182,368.1 L183.8,368.1 L185.6,368.1 L187.4,368.1 L189.2,368.1 L191,368.1 L192.9,368.1 L194.7,368.1 L196.5,368.1 L198.3,369.3 L200.1,369.3 L201.9,369.3 L203.7,369.3 L205.5,369.3 L207.3,369.3 L209.1,369.3 L211,369.3 L212.8,369.3 L214.6,369.3 L216.4,369.3 L218.2,369.3 L220,369.3 L221.8,369.3 L223.6,369.3 L225.4,369.3 L227.2,369.3 L229,369.3 L230.9,369.3 L232.7,369.3 L234.5,370.5 L236.3,370.5 L238.1,370.5 L239.9,370.5 L241.7,370.5 L243.5,370.9 L245.3,370.9 L247.1,370.9 L249,370.9 L250.8,370.9 L252.6,370.9 L254.4,370.9 L256.2,370.9 L258,370.9 L259.8,370.9 L261.6,370.9 L263.4,371.2 L265.2,371.2 L267,371.2 L268.9,371.2 L270.7,371.2 L272.5,371.2 L274.3,371.2 L276.1,371.2 L277.9,371.2 L279.7,371.2 L281.5,371.2 L283.3,371.2 L285.1,371.2 L287,371.2 L288.8,371.2 L290.6,371.2 L292.4,371.2 L294.2,371.2 L296,371.2 L297.8,371.2 L299.6,371.2 L301.4,371.2 L303.2,372.8 L305,372.8 L306.9,372.8 L308.7,372.8 L310.5,372.8 L312.3,372.8 L314.1,372.8 L315.9,373.2 L317.7,373.2 L319.5,373.2 L321.3,373.2 L323.1,373.2 L325,373.2 L326.8,373.2 L328.6,373.2 L330.4,374 L332.2,374 L334,374 L335.8,374 L337.6,374 L339.4,374 L341.2,374 L343,374 L344.9,374 L346.7,374 L348.5,374 L350.3,374 L352.1,374 L353.9,374 L355.7,374 L357.5,374 L359.3,374 L361.1,374 L363,374 L364.8,374 L366.6,374 L368.4,374 L370.2,374 L372,374 L373.8,374 L375.6,374 L377.4,374 L379.2,374 L381,374 L382.9,374 L384.7,374 L386.5,374 L388.3,374 L390.1,374 L391.9,374 L393.7,374 L395.5,374 L397.3,374 L399.1,374 L401,374 L402.8,374 L404.6,374 L406.4,374 L408.2,374 L410,374 L411.8,374 L413.6,374 L415.4,374 L417.2,374 L419,374 L420.9,374 L422.7,374 L424.5,374 L426.3,374 L428.1,374 L429.9,374 L431.7,374 L433.5,374 L435.3,374 L437.1,374 L439,374 L440.8,374 L442.6,374 L444.4,374 L446.2,374 L448,374 L449.8,374 L451.6,374 L453.4,374 L455.2,374 L457,374 L458.9,374 L460.7,374 L462.5,374 L464.3,374 L466.1,374 L467.9,374 L469.7,374 L471.5,374 L473.3,374 L475.1,374 L477,374 L478.8,374 L480.6,374 L482.4,374 L484.2,374 L486,374 L487.8,374 L489.6,374 L491.4,374 L493.2,374 L495,374 L496.9,374 L498.7,374 L500.5,374 L502.3,374 L504.1,374 L505.9,374 L507.7,374 L509.5,374 L511.3,374 L513.1,374 L515,374 L516.8,374 L518.6,374 L520.4,374 L522.2,374 L524,374 L525.8,374 L527.6,374 L529.4,374 L531.2,374 L533,374 L534.9,374 L536.7,374 L538.5,374 L540.3,374 L542.1,374 L543.9,374 L545.7,374 L547.5,374 L549.3,374 L551.1,374 L553,374 L554.8,374 L556.6,374 L558.4,374 L560.2,374 L562,374 L563.8,374 L565.6,374 L567.4,374 L569.2,374 L571,374 L572.9,374 L574.7,374 L576.5,374 L578.3,374 L580.1,374 L581.9,374 L583.7,374 L585.5,374 L587.3,374 L589.1,374 L591,374 L592.8,374 L594.6,374 L596.4,374 L598.2,374 L600,374 L601.8,374 L603.6,374 L605.4,374 L607.2,374 L609,374 L610.9,374 L612.7,376 L614.5,376 L616.3,376 L618.1,376 L619.9,376 L621.7,376 L623.5,376 L625.3,376 L627.1,376 L629,376 L630.8,376 L632.6,376 L634.4,376 L636.2,376 L638,376 L639.8,376 L641.6,376 L643.4,376 L645.2,376 L647,376 L648.9,376 L650.7,376 L652.5,376 L654.3,376 L656.1,376 L657.9,376 L659.7,376 L661.5,376 L663.3,376 L665.1,376 L667,376 L668.8,376 L670.6,376 L672.4,376 L674.2,376 L676,376 L677.8,376 L679.6,376 L681.4,376 L683.2,376 L685,376 L686.9,376 L688.7,376 L690.5,376 L692.3,376 L694.1,376 L695.9,376 L697.7,376 L699.5,376 L701.3,376 L703.1,376 L705,376 L706.8,376 L708.6,376 L710.4,376 L712.2,376 L714,376 L715.8,376 L717.6,376 L719.4,376 L721.2,376 L723,376 L724.9,376 L726.7,376 L728.5,376 L730.3,376 L732.1,376 L733.9,376 L735.7,376 L737.5,376 L739.3,376 L741.1,376 L743,376 L744.8,376 L746.6,376 L748.4,376 L750.2,376 L752,376 L753.8,376 L755.6,376 L757.4,376 L759.2,376 L761,376 L762.9,376 L764.7,376 L766.5,376 L768.3,376 L770.1,376 L771.9,376 L773.7,376 L775.5,376 L777.3,376 L779.1,376 L781,376 L782.8,376 L784.6,376 L786.4,376 L788.2,376 L790,376" fill="none" stroke="#1baf7a" stroke-width="2" stroke-linejoin="round" stroke-linecap="round"/><circle cx="790" cy="372.8" r="4.5" fill="#2a78d6" stroke="#fcfcfb" stroke-width="2"/><text x="804" y="376.8" font-size="12.5" fill="#52514e" text-anchor="start" font-weight="400">0,66 %  пропорциональный</text><circle cx="790" cy="376" r="4.5" fill="#eb6834" stroke="#fcfcfb" stroke-width="2"/><text x="804" y="391.8" font-size="12.5" fill="#52514e" text-anchor="start" font-weight="400">0,00 %  со сдвигом</text><circle cx="790" cy="376" r="4.5" fill="#1baf7a" stroke="#fcfcfb" stroke-width="2"/><text x="804" y="406.8" font-size="12.5" fill="#52514e" text-anchor="start" font-weight="400">0,00 %  ранговый</text><text x="60" y="446" font-size="14" fill="#0b0b0b" text-anchor="start" font-weight="600">50 процессов, p ≤ 100 — n = 50, H = 2713, точный оптимум F = 217563</text><line x1="68" y1="710" x2="790" y2="710" stroke="#898781" stroke-width="1" stroke-dasharray="4 4"/><text x="58" y="714" font-size="12" fill="#898781" text-anchor="end" font-weight="400">0 %</text><line x1="68" y1="662" x2="790" y2="662" stroke="#e1e0d9" stroke-width="1" /><text x="58" y="666" font-size="12" fill="#898781" text-anchor="end" font-weight="400">50 %</text><line x1="68" y1="614" x2="790" y2="614" stroke="#e1e0d9" stroke-width="1" /><text x="58" y="618" font-size="12" fill="#898781" text-anchor="end" font-weight="400">100 %</text><line x1="68" y1="566" x2="790" y2="566" stroke="#e1e0d9" stroke-width="1" /><text x="58" y="570" font-size="12" fill="#898781" text-anchor="end" font-weight="400">150 %</text><line x1="68" y1="518" x2="790" y2="518" stroke="#e1e0d9" stroke-width="1" /><text x="58" y="522" font-size="12" fill="#898781" text-anchor="end" font-weight="400">200 %</text><line x1="68" y1="470" x2="790" y2="470" stroke="#e1e0d9" stroke-width="1" /><text x="58" y="474" font-size="12" fill="#898781" text-anchor="end" font-weight="400">250 %</text><line x1="68" y1="710" x2="68" y2="715" stroke="#c3c2b7" stroke-width="1" /><text x="68" y="730" font-size="12" fill="#898781" text-anchor="middle" font-weight="400">0</text><line x1="249" y1="710" x2="249" y2="715" stroke="#c3c2b7" stroke-width="1" /><text x="249" y="730" font-size="12" fill="#898781" text-anchor="middle" font-weight="400">100</text><line x1="429.9" y1="710" x2="429.9" y2="715" stroke="#c3c2b7" stroke-width="1" /><text x="429.9" y="730" font-size="12" fill="#898781" text-anchor="middle" font-weight="400">200</text><line x1="610.9" y1="710" x2="610.9" y2="715" stroke="#c3c2b7" stroke-width="1" /><text x="610.9" y="730" font-size="12" fill="#898781" text-anchor="middle" font-weight="400">300</text><line x1="790" y1="710" x2="790" y2="715" stroke="#c3c2b7" stroke-width="1" /><text x="790" y="730" font-size="12" fill="#898781" text-anchor="middle" font-weight="400">399</text><text x="429" y="748" font-size="12" fill="#52514e" text-anchor="middle" font-weight="400">поколение (0 % — точный оптимум)</text><path d="M68,489.9 L69.8,501.2 L71.6,503.6 L73.4,507.3 L75.2,507.6 L77,508 L78.9,508.3 L80.7,508.5 L82.5,509.4 L84.3,509.9 L86.1,511.1 L87.9,511.1 L89.7,511.2 L91.5,512.9 L93.3,513.9 L95.1,514.4 L97,514.4 L98.8,514.6 L100.6,514.9 L102.4,515.7 L104.2,516.8 L106,517.4 L107.8,517.5 L109.6,517.6 L111.4,517.6 L113.2,517.7 L115,518.2 L116.9,519.2 L118.7,520.1 L120.5,520.1 L122.3,520.5 L124.1,520.5 L125.9,520.5 L127.7,520.8 L129.5,520.8 L131.3,521.4 L133.1,521.6 L135,523.3 L136.8,523.6 L138.6,523.7 L140.4,524.3 L142.2,524.5 L144,524.5 L145.8,524.6 L147.6,524.7 L149.4,524.8 L151.2,525.1 L153,525.6 L154.9,525.6 L156.7,526 L158.5,526.1 L160.3,526.5 L162.1,527.2 L163.9,527.3 L165.7,527.8 L167.5,527.8 L169.3,528.1 L171.1,528.1 L173,528.4 L174.8,528.5 L176.6,528.5 L178.4,528.7 L180.2,528.7 L182,529 L183.8,529 L185.6,530.2 L187.4,530.2 L189.2,530.2 L191,530.2 L192.9,530.2 L194.7,530.3 L196.5,530.3 L198.3,530.3 L200.1,530.3 L201.9,530.3 L203.7,530.7 L205.5,530.9 L207.3,530.9 L209.1,531 L211,531.7 L212.8,531.9 L214.6,531.9 L216.4,531.9 L218.2,532 L220,532 L221.8,532.2 L223.6,532.2 L225.4,532.2 L227.2,532.2 L229,532.3 L230.9,532.3 L232.7,532.3 L234.5,532.3 L236.3,532.3 L238.1,532.3 L239.9,532.4 L241.7,532.4 L243.5,533.2 L245.3,533.3 L247.1,533.4 L249,533.4 L250.8,533.5 L252.6,533.5 L254.4,533.5 L256.2,533.7 L258,533.7 L259.8,533.7 L261.6,533.7 L263.4,534.1 L265.2,534.4 L267,534.4 L268.9,534.4 L270.7,535 L272.5,535 L274.3,535.3 L276.1,535.4 L277.9,535.6 L279.7,535.8 L281.5,535.8 L283.3,535.9 L285.1,535.9 L287,535.9 L288.8,536 L290.6,536.5 L292.4,537 L294.2,537 L296,537.8 L297.8,537.8 L299.6,537.8 L301.4,538.3 L303.2,538.3 L305,538.3 L306.9,539 L308.7,539 L310.5,539.8 L312.3,540.4 L314.1,540.4 L315.9,540.9 L317.7,541.3 L319.5,541.3 L321.3,541.6 L323.1,542.3 L325,542.4 L326.8,542.5 L328.6,542.5 L330.4,542.7 L332.2,542.8 L334,543.1 L335.8,543.6 L337.6,543.6 L339.4,543.6 L341.2,543.6 L343,543.6 L344.9,544.1 L346.7,544.1 L348.5,544.9 L350.3,545.1 L352.1,545.1 L353.9,545.1 L355.7,545.1 L357.5,545.1 L359.3,545.5 L361.1,545.8 L363,546.3 L364.8,546.3 L366.6,546.3 L368.4,546.3 L370.2,546.7 L372,546.7 L373.8,546.7 L375.6,546.7 L377.4,546.7 L379.2,546.7 L381,547.1 L382.9,547.1 L384.7,547.3 L386.5,547.3 L388.3,547.4 L390.1,547.4 L391.9,547.6 L393.7,547.6 L395.5,548.2 L397.3,548.3 L399.1,548.3 L401,548.5 L402.8,548.6 L404.6,548.6 L406.4,548.6 L408.2,548.6 L410,548.8 L411.8,548.9 L413.6,549.1 L415.4,549.5 L417.2,549.6 L419,549.6 L420.9,549.7 L422.7,549.7 L424.5,549.7 L426.3,550.1 L428.1,550.1 L429.9,550.1 L431.7,550.9 L433.5,551.1 L435.3,551.1 L437.1,551.1 L439,551.4 L440.8,551.4 L442.6,551.4 L444.4,551.4 L446.2,551.5 L448,551.7 L449.8,551.7 L451.6,552 L453.4,552 L455.2,552 L457,552 L458.9,552.1 L460.7,552.2 L462.5,552.2 L464.3,552.2 L466.1,552.2 L467.9,552.2 L469.7,552.2 L471.5,552.3 L473.3,553 L475.1,553 L477,553 L478.8,553.3 L480.6,553.3 L482.4,553.4 L484.2,553.4 L486,553.5 L487.8,553.7 L489.6,553.8 L491.4,553.8 L493.2,554 L495,554 L496.9,554.2 L498.7,554.2 L500.5,554.2 L502.3,554.2 L504.1,554.2 L505.9,554.2 L507.7,554.2 L509.5,554.2 L511.3,554.2 L513.1,554.5 L515,554.5 L516.8,554.5 L518.6,554.5 L520.4,554.5 L522.2,554.5 L524,554.5 L525.8,554.6 L527.6,555.2 L529.4,555.2 L531.2,555.5 L533,555.5 L534.9,555.5 L536.7,555.6 L538.5,556.3 L540.3,556.3 L542.1,556.3 L543.9,556.3 L545.7,556.3 L547.5,556.4 L549.3,556.4 L551.1,556.5 L553,556.6 L554.8,556.8 L556.6,556.8 L558.4,557 L560.2,557 L562,557 L563.8,557.2 L565.6,557.8 L567.4,557.8 L569.2,557.8 L571,557.8 L572.9,558.1 L574.7,558.1 L576.5,558.2 L578.3,558.3 L580.1,558.3 L581.9,562.3 L583.7,562.3 L585.5,562.3 L587.3,562.3 L589.1,562.3 L591,562.9 L592.8,562.9 L594.6,563.2 L596.4,563.2 L598.2,563.2 L600,563.2 L601.8,563.2 L603.6,563.2 L605.4,563.2 L607.2,563.8 L609,564.1 L610.9,564.1 L612.7,564.1 L614.5,564.1 L616.3,564.1 L618.1,564.1 L619.9,564.1 L621.7,564.1 L623.5,564.1 L625.3,564.3 L627.1,564.5 L629,565.1 L630.8,565.3 L632.6,565.3 L634.4,565.3 L636.2,565.3 L638,565.8 L639.8,566.1 L641.6,566.2 L643.4,566.5 L645.2,566.5 L647,566.6 L648.9,566.7 L650.7,566.7 L652.5,566.8 L654.3,567.2 L656.1,567.6 L657.9,567.6 L659.7,567.6 L661.5,567.9 L663.3,567.9 L665.1,568 L667,568.3 L668.8,568.6 L670.6,568.6 L672.4,568.6 L674.2,568.6 L676,568.6 L677.8,568.7 L679.6,568.7 L681.4,569 L683.2,569 L685,569.1 L686.9,569.3 L688.7,569.3 L690.5,569.3 L692.3,569.3 L694.1,569.3 L695.9,569.3 L697.7,569.3 L699.5,569.3 L701.3,569.3 L703.1,569.4 L705,569.4 L706.8,569.4 L708.6,569.4 L710.4,569.4 L712.2,569.4 L714,569.4 L715.8,569.4 L717.6,569.4 L719.4,569.4 L721.2,569.4 L723,569.5 L724.9,569.5 L726.7,569.5 L728.5,569.6 L730.3,569.6 L732.1,569.6 L733.9,569.6 L735.7,569.6 L737.5,569.6 L739.3,569.6 L741.1,569.7 L743,569.7 L744.8,569.7 L746.6,570.1 L748.4,570.1 L750.2,570.1 L752,570.1 L753.8,570.1 L755.6,570.1 L757.4,570.1 L759.2,570.1 L761,570.1 L762.9,570.1 L764.7,570.1 L766.5,570.1 L768.3,570.1 L770.1,570.1 L771.9,570.2 L773.7,570.2 L775.5,570.2 L777.3,570.2 L779.1,570.2 L781,570.2 L782.8,570.4 L784.6,570.4 L786.4,570.4 L788.2,570.4 L790,570.4" fill="none" stroke="#2a78d6" stroke-width="2" stroke-linejoin="round" stroke-linecap="round"/><path d="M68,489.9 L69.8,501 L71.6,503.7 L73.4,510.1 L75.2,512.2 L77,515.8 L78.9,518 L80.7,519.9 L82.5,522.1 L84.3,523.1 L86.1,526.4 L87.9,526.6 L89.7,527.2 L91.5,528.3 L93.3,529.3 L95.1,530.5 L97,530.7 L98.8,531.6 L100.6,532.9 L102.4,533.5 L104.2,533.8 L106,534.4 L107.8,536.4 L109.6,536.7 L111.4,537.1 L113.2,537.4 L115,538.6 L116.9,538.8 L118.7,539 L120.5,539.5 L122.3,539.5 L124.1,539.5 L125.9,540.1 L127.7,540.1 L129.5,540.3 L131.3,540.3 L133.1,540.6 L135,540.9 L136.8,541 L138.6,541.3 L140.4,541.4 L142.2,541.7 L144,541.8 L145.8,541.9 L147.6,542.3 L149.4,542.4 L151.2,542.4 L153,542.4 L154.9,543.3 L156.7,543.3 L158.5,543.4 L160.3,543.4 L162.1,543.7 L163.9,544.4 L165.7,544.4 L167.5,544.9 L169.3,545.4 L171.1,546 L173,546.5 L174.8,547.9 L176.6,548.2 L178.4,548.7 L180.2,548.7 L182,549 L183.8,549.3 L185.6,549.8 L187.4,550.2 L189.2,551.2 L191,551.3 L192.9,551.3 L194.7,552.3 L196.5,552.3 L198.3,552.4 L200.1,552.4 L201.9,552.4 L203.7,552.4 L205.5,552.8 L207.3,553 L209.1,553.3 L211,553.5 L212.8,553.5 L214.6,553.7 L216.4,554.7 L218.2,554.9 L220,554.9 L221.8,555.1 L223.6,555.5 L225.4,555.5 L227.2,555.6 L229,556 L230.9,556.2 L232.7,556.3 L234.5,556.3 L236.3,556.4 L238.1,556.4 L239.9,556.5 L241.7,556.8 L243.5,556.8 L245.3,557 L247.1,557 L249,557.1 L250.8,557.3 L252.6,557.3 L254.4,557.4 L256.2,557.4 L258,557.4 L259.8,557.5 L261.6,557.5 L263.4,557.6 L265.2,557.6 L267,557.6 L268.9,557.8 L270.7,557.8 L272.5,557.8 L274.3,557.8 L276.1,557.8 L277.9,557.8 L279.7,557.9 L281.5,557.9 L283.3,557.9 L285.1,557.9 L287,558 L288.8,558 L290.6,558 L292.4,558 L294.2,558 L296,558 L297.8,558 L299.6,558 L301.4,558 L303.2,558 L305,558 L306.9,558 L308.7,558 L310.5,558 L312.3,558 L314.1,558 L315.9,558 L317.7,558 L319.5,558 L321.3,558 L323.1,558.4 L325,558.4 L326.8,558.6 L328.6,558.8 L330.4,558.8 L332.2,559.3 L334,559.3 L335.8,559.5 L337.6,559.5 L339.4,559.6 L341.2,559.6 L343,559.6 L344.9,559.6 L346.7,560.2 L348.5,560.5 L350.3,560.7 L352.1,561.2 L353.9,561.3 L355.7,561.4 L357.5,561.5 L359.3,561.6 L361.1,561.7 L363,562.1 L364.8,562.1 L366.6,562.1 L368.4,562.1 L370.2,562.4 L372,562.5 L373.8,562.5 L375.6,562.5 L377.4,562.6 L379.2,562.8 L381,562.8 L382.9,562.8 L384.7,562.8 L386.5,562.8 L388.3,562.8 L390.1,562.9 L391.9,563 L393.7,563 L395.5,563.4 L397.3,563.4 L399.1,563.5 L401,563.6 L402.8,563.6 L404.6,563.6 L406.4,563.6 L408.2,563.6 L410,563.7 L411.8,563.7 L413.6,563.7 L415.4,563.7 L417.2,563.8 L419,563.8 L420.9,563.8 L422.7,564.1 L424.5,564.3 L426.3,564.3 L428.1,564.3 L429.9,564.7 L431.7,564.7 L433.5,564.7 L435.3,564.9 L437.1,564.9 L439,564.9 L440.8,564.9 L442.6,564.9 L444.4,565 L446.2,565.2 L448,565.2 L449.8,565.5 L451.6,565.5 L453.4,565.5 L455.2,565.5 L457,565.7 L458.9,565.7 L460.7,565.7 L462.5,565.7 L464.3,565.7 L466.1,565.7 L467.9,565.7 L469.7,565.7 L471.5,565.8 L473.3,565.9 L475.1,565.9 L477,565.9 L478.8,566 L480.6,566.1 L482.4,566.1 L484.2,566.1 L486,566.1 L487.8,566.5 L489.6,566.5 L491.4,566.6 L493.2,566.6 L495,566.6 L496.9,566.6 L498.7,566.8 L500.5,566.9 L502.3,566.9 L504.1,567.1 L505.9,567.2 L507.7,567.2 L509.5,567.2 L511.3,567.2 L513.1,567.3 L515,567.3 L516.8,567.6 L518.6,567.6 L520.4,567.7 L522.2,567.7 L524,567.7 L525.8,567.8 L527.6,568.1 L529.4,568.1 L531.2,568.3 L533,568.4 L534.9,568.4 L536.7,568.4 L538.5,569.2 L540.3,569.2 L542.1,569.2 L543.9,569.2 L545.7,569.2 L547.5,569.2 L549.3,569.3 L551.1,569.3 L553,569.3 L554.8,569.7 L556.6,569.7 L558.4,569.8 L560.2,569.8 L562,569.8 L563.8,570 L565.6,570.1 L567.4,570.4 L569.2,570.4 L571,570.4 L572.9,570.6 L574.7,570.8 L576.5,570.8 L578.3,570.8 L580.1,570.8 L581.9,570.8 L583.7,570.8 L585.5,571 L587.3,571 L589.1,571 L591,571 L592.8,571 L594.6,571.3 L596.4,571.3 L598.2,571.4 L600,571.5 L601.8,571.5 L603.6,571.5 L605.4,571.8 L607.2,571.8 L609,572.2 L610.9,572.4 L612.7,572.6 L614.5,572.7 L616.3,572.7 L618.1,572.8 L619.9,572.8 L621.7,572.8 L623.5,572.9 L625.3,573.2 L627.1,573.2 L629,573.2 L630.8,573.2 L632.6,573.3 L634.4,573.5 L636.2,573.6 L638,573.6 L639.8,573.6 L641.6,574.2 L643.4,574.2 L645.2,574.3 L647,574.3 L648.9,574.3 L650.7,574.4 L652.5,574.4 L654.3,574.6 L656.1,574.6 L657.9,574.6 L659.7,574.6 L661.5,574.6 L663.3,574.9 L665.1,574.9 L667,575 L668.8,575 L670.6,575 L672.4,575 L674.2,575 L676,575.1 L677.8,575.2 L679.6,575.6 L681.4,575.6 L683.2,575.6 L685,575.6 L686.9,575.6 L688.7,575.6 L690.5,575.6 L692.3,575.6 L694.1,575.6 L695.9,575.8 L697.7,575.8 L699.5,575.8 L701.3,575.9 L703.1,575.9 L705,576 L706.8,576.3 L708.6,576.3 L710.4,576.4 L712.2,576.4 L714,576.4 L715.8,576.4 L717.6,576.5 L719.4,576.5 L721.2,576.6 L723,576.6 L724.9,576.6 L726.7,576.6 L728.5,576.6 L730.3,576.6 L732.1,576.6 L733.9,576.6 L735.7,576.6 L737.5,576.6 L739.3,576.7 L741.1,576.7 L743,576.7 L744.8,576.7 L746.6,576.8 L748.4,576.8 L750.2,576.8 L752,576.8 L753.8,576.8 L755.6,576.8 L757.4,576.9 L759.2,576.9 L761,577 L762.9,577 L764.7,577 L766.5,577 L768.3,577 L770.1,577 L771.9,577 L773.7,577 L775.5,577 L777.3,577 L779.1,577 L781,577.2 L782.8,577.2 L784.6,577.3 L786.4,577.3 L788.2,577.3 L790,577.7" fill="none" stroke="#eb6834" stroke-width="2" stroke-linejoin="round" stroke-linecap="round"/><path d="M68,489.9 L69.8,501.4 L71.6,504.6 L73.4,508.5 L75.2,509.9 L77,512.2 L78.9,515.3 L80.7,518.2 L82.5,520.1 L84.3,521.4 L86.1,523.2 L87.9,525.2 L89.7,525.2 L91.5,526.7 L93.3,527.8 L95.1,528.3 L97,529.9 L98.8,531.2 L100.6,532.7 L102.4,533.6 L104.2,534.2 L106,534.9 L107.8,535.6 L109.6,537.1 L111.4,537.4 L113.2,537.8 L115,537.9 L116.9,538.7 L118.7,539.4 L120.5,539.8 L122.3,540.6 L124.1,540.6 L125.9,541.2 L127.7,541.5 L129.5,541.9 L131.3,542.3 L133.1,543.6 L135,544 L136.8,544.5 L138.6,545.2 L140.4,546.2 L142.2,546.3 L144,547.1 L145.8,547.8 L147.6,548.2 L149.4,548.4 L151.2,549.2 L153,549.8 L154.9,550 L156.7,550 L158.5,550.7 L160.3,550.7 L162.1,551.1 L163.9,551.8 L165.7,552.4 L167.5,552.7 L169.3,552.7 L171.1,553.1 L173,553.3 L174.8,553.8 L176.6,553.9 L178.4,553.9 L180.2,554.1 L182,554.7 L183.8,554.8 L185.6,555.1 L187.4,555.2 L189.2,555.3 L191,555.3 L192.9,555.4 L194.7,555.8 L196.5,556.3 L198.3,556.4 L200.1,556.7 L201.9,556.9 L203.7,557.1 L205.5,557.1 L207.3,557.3 L209.1,557.3 L211,557.3 L212.8,557.6 L214.6,558.2 L216.4,558.4 L218.2,559.5 L220,559.6 L221.8,559.8 L223.6,560.4 L225.4,560.5 L227.2,560.5 L229,561.1 L230.9,561.4 L232.7,562 L234.5,562.1 L236.3,562.1 L238.1,562.2 L239.9,562.7 L241.7,562.7 L243.5,562.9 L245.3,563 L247.1,563.1 L249,563.4 L250.8,563.5 L252.6,563.5 L254.4,563.6 L256.2,564 L258,564.3 L259.8,564.3 L261.6,564.8 L263.4,565.1 L265.2,565.6 L267,565.7 L268.9,565.8 L270.7,566 L272.5,566.2 L274.3,566.4 L276.1,566.7 L277.9,566.8 L279.7,567.1 L281.5,567.1 L283.3,567.2 L285.1,567.3 L287,567.3 L288.8,567.4 L290.6,567.5 L292.4,567.6 L294.2,567.6 L296,567.6 L297.8,567.6 L299.6,567.7 L301.4,567.9 L303.2,568 L305,568.1 L306.9,568.4 L308.7,568.5 L310.5,568.7 L312.3,568.7 L314.1,569 L315.9,569.3 L317.7,569.4 L319.5,569.6 L321.3,569.7 L323.1,570 L325,570.2 L326.8,570.2 L328.6,570.3 L330.4,570.5 L332.2,570.5 L334,571 L335.8,571.3 L337.6,571.3 L339.4,571.4 L341.2,571.4 L343,571.5 L344.9,571.5 L346.7,571.9 L348.5,572 L350.3,572.1 L352.1,572.2 L353.9,572.3 L355.7,572.4 L357.5,572.6 L359.3,572.6 L361.1,572.6 L363,572.9 L364.8,573 L366.6,573 L368.4,573.1 L370.2,573.2 L372,573.3 L373.8,573.4 L375.6,573.4 L377.4,573.4 L379.2,573.6 L381,573.6 L382.9,573.6 L384.7,573.8 L386.5,574.1 L388.3,574.1 L390.1,574.2 L391.9,574.2 L393.7,574.2 L395.5,574.2 L397.3,574.3 L399.1,574.5 L401,574.6 L402.8,574.7 L404.6,574.7 L406.4,574.7 L408.2,574.7 L410,574.7 L411.8,574.8 L413.6,574.9 L415.4,574.9 L417.2,575.2 L419,575.3 L420.9,575.4 L422.7,575.4 L424.5,575.6 L426.3,575.6 L428.1,575.6 L429.9,575.8 L431.7,575.8 L433.5,575.8 L435.3,575.9 L437.1,575.9 L439,576 L440.8,576 L442.6,576 L444.4,576.1 L446.2,576.1 L448,576.1 L449.8,576.1 L451.6,576.5 L453.4,576.5 L455.2,576.5 L457,576.5 L458.9,576.8 L460.7,576.8 L462.5,577.1 L464.3,577.4 L466.1,577.4 L467.9,577.7 L469.7,577.7 L471.5,577.8 L473.3,577.8 L475.1,577.8 L477,578.2 L478.8,578.2 L480.6,578.3 L482.4,578.4 L484.2,578.6 L486,578.8 L487.8,578.8 L489.6,578.8 L491.4,579 L493.2,579.1 L495,579.6 L496.9,579.6 L498.7,579.7 L500.5,579.8 L502.3,579.9 L504.1,579.9 L505.9,579.9 L507.7,580 L509.5,580.1 L511.3,580.1 L513.1,580.1 L515,580.1 L516.8,580.2 L518.6,580.2 L520.4,580.3 L522.2,580.3 L524,580.3 L525.8,580.3 L527.6,580.3 L529.4,580.5 L531.2,580.5 L533,580.5 L534.9,580.5 L536.7,580.6 L538.5,580.6 L540.3,580.9 L542.1,580.9 L543.9,581 L545.7,581.1 L547.5,581.1 L549.3,581.1 L551.1,581.2 L553,581.3 L554.8,581.4 L556.6,581.4 L558.4,581.4 L560.2,581.5 L562,581.6 L563.8,581.6 L565.6,581.7 L567.4,581.7 L569.2,581.8 L571,581.9 L572.9,582 L574.7,582.2 L576.5,582.3 L578.3,582.4 L580.1,582.4 L581.9,582.5 L583.7,582.6 L585.5,582.6 L587.3,582.7 L589.1,582.7 L591,582.7 L592.8,582.8 L594.6,582.8 L596.4,582.8 L598.2,582.8 L600,582.9 L601.8,582.9 L603.6,582.9 L605.4,582.9 L607.2,583 L609,583 L610.9,583 L612.7,583.1 L614.5,583.1 L616.3,583.1 L618.1,583.1 L619.9,583.2 L621.7,583.2 L623.5,583.2 L625.3,583.3 L627.1,583.4 L629,583.5 L630.8,583.5 L632.6,583.7 L634.4,583.7 L636.2,583.8 L638,583.8 L639.8,584.4 L641.6,584.4 L643.4,584.5 L645.2,584.8 L647,585.3 L648.9,585.3 L650.7,585.4 L652.5,585.4 L654.3,585.6 L656.1,585.6 L657.9,585.7 L659.7,585.7 L661.5,585.9 L663.3,586.2 L665.1,586.2 L667,586.2 L668.8,586.4 L670.6,586.6 L672.4,586.7 L674.2,587 L676,587 L677.8,587 L679.6,587.2 L681.4,587.2 L683.2,587.2 L685,587.2 L686.9,587.2 L688.7,587.5 L690.5,587.5 L692.3,587.5 L694.1,587.5 L695.9,587.6 L697.7,587.6 L699.5,587.7 L701.3,587.9 L703.1,587.9 L705,587.9 L706.8,588 L708.6,588.1 L710.4,588.1 L712.2,588.1 L714,588.1 L715.8,588.1 L717.6,588.2 L719.4,588.3 L721.2,588.4 L723,588.4 L724.9,588.5 L726.7,588.5 L728.5,588.5 L730.3,588.5 L732.1,588.6 L733.9,588.6 L735.7,588.6 L737.5,588.7 L739.3,588.8 L741.1,588.8 L743,588.8 L744.8,588.9 L746.6,588.9 L748.4,589 L750.2,589.1 L752,589.1 L753.8,589.1 L755.6,589.1 L757.4,589.2 L759.2,589.3 L761,589.3 L762.9,589.3 L764.7,589.5 L766.5,589.5 L768.3,589.5 L770.1,589.5 L771.9,589.6 L773.7,589.7 L775.5,589.7 L777.3,589.8 L779.1,589.8 L781,589.8 L782.8,589.8 L784.6,589.9 L786.4,589.9 L788.2,589.9 L790,589.9" fill="none" stroke="#1baf7a" stroke-width="2" stroke-linejoin="round" stroke-linecap="round"/><circle cx="790" cy="570.4" r="4.5" fill="#2a78d6" stroke="#fcfcfb" stroke-width="2"/><text x="804" y="574.4" font-size="12.5" fill="#52514e" text-anchor="start" font-weight="400">145,4 %  пропорциональный</text><circle cx="790" cy="577.7" r="4.5" fill="#eb6834" stroke="#fcfcfb" stroke-width="2"/><text x="804" y="589.4" font-size="12.5" fill="#52514e" text-anchor="start" font-weight="400">137,8 %  со сдвигом</text><circle cx="790" cy="589.9" r="4.5" fill="#1baf7a" stroke="#fcfcfb" stroke-width="2"/><text x="804" y="604.4" font-size="12.5" fill="#52514e" text-anchor="start" font-weight="400">125,1 %  ранговый</text><text x="60" y="770" font-size="12" fill="#52514e" text-anchor="start" font-weight="400">Отрыв лучшего найденного F от точного оптимума (правило Смита), %; 0 % — оптимум найден.</text>
</svg>
